<svg width="200" height="60" viewBox="0 0 200 60" fill="none" xmlns="http://www.w3.org/2000/svg">
    <rect width="200" height="60" rx="12" fill="#1A1A1A"/>
    
    <!-- Shield Icon -->
    <path d="M30 20C30 15 35 10 40 10H50C55 10 60 15 60 20V30C60 35 55 40 50 40H40C35 40 30 35 30 30V20Z" fill="url(#paint0_linear)"/>
    <path d="M40 15C37 15 35 17 35 20V30C35 33 37 35 40 35H50C53 35 55 33 55 30V20C55 17 53 15 50 15H40Z" fill="#00CCFF"/>
    
    <!-- Camera Lens -->
    <circle cx="45" cy="25" r="5" fill="#1A1A1A"/>
    <circle cx="45" cy="25" r="2" fill="#39FF14"/>
    
    <!-- Text -->
    <text x="70" y="35" font-family="Arial, sans-serif" font-size="20" font-weight="bold" fill="url(#paint1_linear)">CampusGuard</text>
    <text x="70" y="50" font-family="Arial, sans-serif" font-size="14" fill="#00CCFF">AI</text>
    
    <defs>
        <linearGradient id="paint0_linear" x1="30" y1="10" x2="60" y2="40" gradientUnits="userSpaceOnUse">
            <stop stop-color="#0066CC"/>
            <stop offset="1" stop-color="#00CCFF"/>
        </linearGradient>
        <linearGradient id="paint1_linear" x1="70" y1="20" x2="180" y2="20" gradientUnits="userSpaceOnUse">
            <stop stop-color="#0066CC"/>
            <stop offset="1" stop-color="#00CCFF"/>
        </linearGradient>
    </defs>
</svg>